<?xml version="1.0" standalone="no"?>
<!DOCTYPE svg PUBLIC "-//W3C//DTD SVG 20010904//EN"
 "http://www.w3.org/TR/2001/REC-SVG-20010904/DTD/svg10.dtd">
<svg version="1.0" xmlns="http://www.w3.org/2000/svg"
 width="700.000000pt" height="700.000000pt" viewBox="0 0 700.000000 700.000000"
 preserveAspectRatio="xMidYMid meet">
<metadata>
Created by potrace 1.14, written by Peter Selinger 2001-2017
</metadata>
<g transform="translate(0.000000,700.000000) scale(0.100000,-0.100000)"
fill="#000000" stroke="none">
<path d="M3278 6995 c-1 -1 -42 -5 -89 -9 -47 -4 -95 -8 -106 -10 -11 -3 -44
-7 -74 -11 -102 -12 -217 -34 -344 -67 -44 -11 -89 -22 -101 -24 -91 -17 -415
-140 -579 -220 -180 -87 -448 -247 -555 -331 -8 -6 -51 -40 -95 -74 -351 -273
-674 -652 -897 -1054 -49 -87 -148 -289 -148 -301 0 -2 -9 -23 -20 -47 -57
-123 -157 -435 -186 -582 -2 -11 -10 -54 -19 -95 -22 -115 -30 -160 -41 -255
-26 -230 -26 -667 1 -826 2 -13 6 -46 9 -74 9 -78 22 -152 51 -285 21 -96 91
-339 114 -395 5 -11 25 -65 46 -120 63 -166 249 -531 312 -610 4 -6 34 -49 65
-95 171 -256 432 -534 708 -755 92 -74 370 -265 386 -265 4 0 15 -6 23 -14 26
-22 298 -158 408 -204 282 -116 583 -199 862 -238 25 -3 57 -8 71 -10 163 -25
682 -25 842 1 13 2 46 7 73 10 74 11 87 13 120 19 17 4 46 9 65 12 95 16 309
73 450 121 557 189 1096 546 1479 982 31 35 63 71 71 80 13 14 67 82 92 116 4
6 18 24 31 40 124 158 302 461 391 665 16 36 36 83 46 105 54 123 147 418 176
560 17 81 54 301 59 350 4 33 9 71 11 85 9 46 11 524 4 605 -12 128 -21 202
-25 227 -3 13 -8 43 -11 68 -18 134 -89 411 -152 592 -292 836 -916 1550
-1707 1953 -330 168 -727 298 -1035 340 -19 3 -46 7 -60 10 -13 2 -52 7 -86
11 -33 3 -74 8 -90 10 -32 5 -540 14 -546 9z m422 -1659 c308 -32 619 -152
885 -344 236 -170 444 -418 573 -683 190 -392 237 -845 131 -1261 -167 -657
-683 -1173 -1339 -1337 -63 -16 -137 -31 -165 -35 -27 -3 -70 -9 -95 -12 -61
-10 -290 -10 -370 -1 -113 13 -140 17 -230 37 -131 29 -332 100 -400 141 -8 5
-29 15 -46 23 -56 25 -197 117 -282 183 -385 301 -632 738 -697 1238 -19 140
-9 425 19 555 3 14 11 50 17 80 21 101 80 264 139 387 182 374 482 674 859
857 106 51 284 114 371 131 8 2 33 8 55 13 49 13 96 19 200 28 44 4 81 7 82 9
6 4 224 -3 293 -9z"/>
</g>
</svg>
