<svg id="root" viewBox="0 0 16 16" xmlns="http://www.w3.org/2000/svg">
<path d="M5.45827 0.410206C6.74832 -0.0173359 8.14623 -0.114857 9.48214 0.137341C11.6127 0.516769 13.5386 1.84041 14.7076 3.65456C15.4141 4.73213 15.8433 5.98472 15.9605 7.26703C16.0461 8.06689 15.9821 8.87677 15.83 9.66469C15.6037 10.8304 15.1122 11.9455 14.3924 12.891C13.2138 14.4571 11.4723 15.6044 9.5464 16C9.54543 14.0822 9.5464 12.1647 9.54608 10.2472C10.0692 10.2463 10.5923 10.2472 11.1155 10.2466C11.2343 9.49387 11.3509 8.7405 11.471 7.98778C10.6785 7.98487 9.88643 7.98746 9.09431 7.98649C9.09367 7.47822 9.09431 6.96995 9.09367 6.462C9.09302 6.09032 9.24932 5.69539 9.56319 5.48065C9.81442 5.31822 10.1218 5.28044 10.4147 5.27431C10.8784 5.27302 11.3425 5.27463 11.8062 5.27366C11.8065 4.61394 11.8068 3.95422 11.8062 3.2945C11.1642 3.19827 10.5161 3.13401 9.86641 3.13918C9.23414 3.1508 8.58766 3.2945 8.05678 3.65068C7.62795 3.93291 7.28792 4.34689 7.09707 4.82384C6.90591 5.29045 6.8368 5.79808 6.83357 6.29989C6.83325 6.86209 6.8339 7.42429 6.83325 7.98649C6.23069 7.98681 5.6278 7.98617 5.02524 7.98681C5.02556 8.74018 5.02491 9.49354 5.02556 10.2469C5.62812 10.2469 6.23069 10.2466 6.83325 10.2469C6.83357 12.1644 6.83357 14.0819 6.83325 15.9994C6.13607 15.8779 5.44858 15.6906 4.7979 15.41C2.95017 14.6257 1.4457 13.0902 0.655845 11.2496C0.220875 10.2291 0.0148542 9.11864 0 8.01168C0.00807293 7.36746 0.0846043 6.72356 0.236375 6.0971C0.670053 4.29393 1.76733 2.66514 3.2563 1.56367C3.92538 1.0696 4.66809 0.672415 5.45827 0.410206Z" />
</svg>
