<svg id="root" viewBox="0 0 20 20" xmlns="http://www.w3.org/2000/svg">
<g id="filter">
<path id="Union" fill-rule="evenodd" clip-rule="evenodd" d="M2.625 5.9375C2.625 4.45323 3.82823 3.25 5.3125 3.25C6.79676 3.25 8 4.45323 8 5.9375C8 7.42176 6.79676 8.625 5.3125 8.625C3.82823 8.625 2.625 7.42176 2.625 5.9375ZM9.43302 5.1875C9.07955 3.2327 7.36918 1.75 5.3125 1.75C2.99981 1.75 1.125 3.62481 1.125 5.9375C1.125 8.25019 2.99981 10.125 5.3125 10.125C7.36918 10.125 9.07955 8.6423 9.43302 6.6875H16.25C16.6642 6.6875 17 6.35171 17 5.9375C17 5.52329 16.6642 5.1875 16.25 5.1875H9.43302ZM3 14.0625C3 13.6483 3.33579 13.3125 3.75 13.3125H10.567C10.9204 11.3577 12.6308 9.875 14.6875 9.875C17.0002 9.875 18.875 11.7498 18.875 14.0625C18.875 16.3752 17.0002 18.25 14.6875 18.25C12.6308 18.25 10.9204 16.7673 10.567 14.8125H3.75C3.33579 14.8125 3 14.4767 3 14.0625ZM12 14.0625C12 12.5782 13.2032 11.375 14.6875 11.375C16.1718 11.375 17.375 12.5782 17.375 14.0625C17.375 15.5468 16.1718 16.75 14.6875 16.75C13.2032 16.75 12 15.5468 12 14.0625Z"/>
</g>
</svg>
