<svg id="root" viewBox="0 0 16 16" xmlns="http://www.w3.org/2000/svg">
<g clip-path="url(#clip0_392_1178)">
<path d="M-0.000976562 1.85858C-0.000976562 1.31985 0.179209 0.875409 0.539564 0.525252C0.899919 0.175079 1.3684 0 1.94497 0C2.51126 0 2.96942 0.17238 3.31949 0.517171C3.67984 0.872726 3.86003 1.33601 3.86003 1.90707C3.86003 2.42424 3.685 2.8552 3.33493 3.2C2.97458 3.55555 2.50095 3.73333 1.91408 3.73333H1.89864C1.33235 3.73333 0.874189 3.55555 0.52412 3.2C0.17405 2.84444 -0.000976562 2.3973 -0.000976562 1.85858ZM0.199796 16V5.20403H3.62837V16H0.199796ZM5.52798 16H8.95655V9.9717C8.95655 9.59459 8.99774 9.30368 9.0801 9.09898C9.22424 8.73264 9.44304 8.42287 9.73647 8.16968C10.0299 7.91648 10.398 7.78989 10.8407 7.78989C11.9939 7.78989 12.5705 8.60335 12.5705 10.2303V16H15.999V9.81009C15.999 8.21547 15.6387 7.00605 14.9179 6.18181C14.1972 5.35757 13.2448 4.94545 12.0608 4.94545C10.7326 4.94545 9.69786 5.54343 8.95655 6.73938V6.77171H8.94111L8.95655 6.73938V5.20403H5.52798C5.54857 5.54881 5.55887 6.62085 5.55887 8.42019C5.55887 10.2195 5.54857 12.7461 5.52798 16Z" />
</g>
<defs>
<clipPath id="clip0_392_1178">
<rect transform="translate(-0.000976562)"/>
</clipPath>
</defs>
</svg>
