<svg id="root" viewBox="0 0 79 60" xmlns="http://www.w3.org/2000/svg">
<path d="M31.8092 21.6763C33.6537 21.6763 34.9003 22.2233 36.0429 23.3174C37.1854 24.4116 37.7542 25.8059 37.7542 27.5027C37.7542 29.1996 37.183 30.5939 36.0429 31.688C34.9003 32.7821 33.5496 33.334 31.8092 33.3292H28.2557V38.3229H24.0342V21.6763H31.8092ZM31.8334 29.2819C32.4216 29.2625 32.7097 29.1149 33.034 28.7832C33.3584 28.4492 33.5206 28.0232 33.5206 27.4979C33.5206 26.9726 33.3584 26.5514 33.034 26.2247C32.7097 25.9003 32.378 25.7381 31.8334 25.7381L28.2557 25.743V29.2867L31.8334 29.2819Z" />
<path d="M72.0424 38.679C70.2826 38.679 68.823 38.3062 67.6659 37.5607C66.5089 36.8151 65.7004 35.8082 65.2405 34.5398L68.8787 32.4241C69.4959 33.8983 70.59 34.6366 72.161 34.6366C73.4609 34.6366 74.112 34.2638 74.112 33.5183C74.112 33.0269 73.7393 32.6299 72.9937 32.3297C72.6766 32.2039 71.9795 31.9884 70.8999 31.6883C69.3773 31.2453 68.1718 30.6232 67.2859 29.822C66.3975 29.0208 65.9546 27.9073 65.9546 26.4815C65.9546 24.9444 66.5065 23.6978 67.6078 22.7465C68.7092 21.7952 70.0841 21.3208 71.735 21.3208C73.1293 21.3208 74.3662 21.6452 75.4458 22.2963C76.523 22.9475 77.3484 23.8891 77.9197 25.126L74.3517 27.2198C73.8288 25.9829 72.9647 25.3656 71.7592 25.3656C71.2509 25.3656 70.8684 25.4697 70.607 25.6755C70.3456 25.8812 70.2148 26.1426 70.2148 26.4597C70.2148 26.8253 70.4085 27.1327 70.7982 27.3868C71.1855 27.641 71.9432 27.9339 73.0687 28.2679C73.8772 28.5052 74.5284 28.7279 75.0198 28.9336C75.5112 29.1394 76.051 29.4371 76.6367 29.8244C77.2225 30.2141 77.6582 30.7128 77.9439 31.3228C78.2295 31.9327 78.3723 32.6517 78.3723 33.4747C78.3723 35.1086 77.7938 36.3843 76.6367 37.3041C75.4748 38.2191 73.945 38.679 72.0424 38.679Z" />
<path d="M8.68033 21.3159C3.88751 21.3159 0 25.2035 0 29.9964C0 34.7892 3.88751 38.6767 8.68033 38.6767C13.4731 38.6767 17.3607 34.7892 17.3607 29.9964C17.3607 25.2035 13.4756 21.3159 8.68033 21.3159ZM8.68033 34.5786C6.15078 34.5786 4.10052 32.5283 4.10052 29.9988C4.10052 27.4692 6.15078 25.4166 8.68033 25.4166C11.2099 25.4166 13.2601 27.4668 13.2601 29.9964C13.2601 32.5259 11.2099 34.5786 8.68033 34.5786Z" />
<path d="M51.317 21.3208C46.5218 21.3208 42.6367 25.2083 42.6367 30.0011C42.6367 34.7963 46.5242 38.6814 51.317 38.6814C56.1123 38.6814 59.9974 34.7939 59.9974 30.0011C59.9998 25.2083 56.1123 21.3208 51.317 21.3208ZM51.317 34.5809C48.7875 34.5809 46.7372 32.5306 46.7372 30.0011C46.7372 27.4716 48.7875 25.4213 51.317 25.4213C53.8466 25.4213 55.8969 27.4716 55.8969 30.0011C55.8993 32.5306 53.8466 34.5809 51.317 34.5809Z" fill="#F5A800"/>
<path d="M38.6812 8.68032C38.6812 3.88751 34.7961 0 30.0009 0C25.2056 0 21.3206 3.88751 21.3206 8.68032C21.3206 13.4756 25.2081 17.3606 30.0009 17.3606C34.7961 17.3606 38.6812 13.4756 38.6812 8.68032ZM25.4211 8.68032C25.4211 6.15078 27.4713 4.10052 30.0009 4.10052C32.5304 4.10052 34.5807 6.15078 34.5807 8.68032C34.5807 11.2099 32.5304 13.2601 30.0009 13.2601C27.4713 13.2601 25.4211 11.2099 25.4211 8.68032Z" fill="#F5A800"/>
<path d="M38.6793 51.3195C38.6793 46.5242 34.7918 42.6392 29.999 42.6392C25.2037 42.6392 21.3186 46.5267 21.3186 51.3195C21.3186 56.1147 25.2061 59.9998 29.999 59.9998C34.7918 59.9998 38.6793 56.1123 38.6793 51.3195ZM25.4167 51.3195C25.4167 48.7899 27.467 46.7397 29.9965 46.7397C32.5261 46.7397 34.5763 48.7899 34.5763 51.3195C34.5763 53.849 32.5261 55.8993 29.9965 55.8993C27.467 55.8993 25.4167 53.8466 25.4167 51.3195Z" fill="#F5A800"/>
</svg>
